<svg xmlns="http://www.w3.org/2000/svg" viewBox="0 0 128 128" role="img" aria-label="Keyboard">
  <defs>
    <linearGradient id="g1" x1="0" y1="0" x2="1" y2="1">
      <stop offset="0%" stop-color="#dbeafe"/>
      <stop offset="100%" stop-color="#93c5fd"/>
    </linearGradient>
  </defs>
  <rect x="12" y="22" width="104" height="84" rx="14" fill="#1e3a8a"/>
  <rect x="20" y="30" width="88" height="68" rx="10" fill="url(#g1)" opacity="0.18"/>
  <g fill="#e2e8f0">
    <rect x="28" y="40" width="10" height="8" rx="2"/>
    <rect x="42" y="40" width="10" height="8" rx="2"/>
    <rect x="56" y="40" width="10" height="8" rx="2"/>
    <rect x="70" y="40" width="10" height="8" rx="2"/>
    <rect x="84" y="40" width="10" height="8" rx="2"/>
    <rect x="28" y="52" width="10" height="8" rx="2"/>
    <rect x="42" y="52" width="10" height="8" rx="2"/>
    <rect x="56" y="52" width="10" height="8" rx="2"/>
    <rect x="70" y="52" width="10" height="8" rx="2"/>
    <rect x="84" y="52" width="10" height="8" rx="2"/>
    <rect x="28" y="64" width="10" height="8" rx="2"/>
    <rect x="42" y="64" width="10" height="8" rx="2"/>
    <rect x="56" y="64" width="10" height="8" rx="2"/>
    <rect x="70" y="64" width="10" height="8" rx="2"/>
    <rect x="84" y="64" width="10" height="8" rx="2"/>
    <rect x="28" y="78" width="66" height="10" rx="4"/>
  </g>
</svg>
